ModelForces
version=1
nRows=4
nColumns=206
inDegrees=no

This file contains the forces exerted on a model during a simulation.

A force is a generalized force, meaning that it can be either a force (N) or a torque (Nm).

Units are S.I. units (second, meters, Newtons, ...)
Angles are in degrees.

endheader
time	glut_med1_r	glut_med2_r	glut_med3_r	glut_min1_r	glut_min2_r	glut_min3_r	semimem_r	semiten_r	bifemlh_r	bifemsh_r	sar_r	add_long_r	add_brev_r	add_mag1_r	add_mag2_r	add_mag3_r	tfl_r	pect_r	grac_r	glut_max1_r	glut_max2_r	glut_max3_r	iliacus_r	psoas_r	quad_fem_r	gem_r	peri_r	rect_fem_r	vas_med_r	vas_int_r	vas_lat_r	med_gas_r	lat_gas_r	soleus_r	tib_post_r	flex_dig_r	flex_hal_r	tib_ant_r	per_brev_r	per_long_r	per_tert_r	ext_dig_r	ext_hal_r	glut_med1_l	glut_med2_l	glut_med3_l	glut_min1_l	glut_min2_l	glut_min3_l	semimem_l	semiten_l	bifemlh_l	bifemsh_l	sar_l	add_long_l	add_brev_l	add_mag1_l	add_mag2_l	add_mag3_l	tfl_l	pect_l	grac_l	glut_max1_l	glut_max2_l	glut_max3_l	iliacus_l	psoas_l	quad_fem_l	gem_l	peri_l	rect_fem_l	vas_med_l	vas_int_l	vas_lat_l	med_gas_l	lat_gas_l	soleus_l	tib_post_l	flex_dig_l	flex_hal_l	tib_ant_l	per_brev_l	per_long_l	per_tert_l	ext_dig_l	ext_hal_l	ercspn_r	ercspn_l	intobl_r	intobl_l	extobl_r	extobl_l	femur_lat_meniscii_l.femur_lat_l.force.X	femur_lat_meniscii_l.femur_lat_l.force.Y	femur_lat_meniscii_l.femur_lat_l.force.Z	femur_lat_meniscii_l.femur_lat_l.torque.X	femur_lat_meniscii_l.femur_lat_l.torque.Y	femur_lat_meniscii_l.femur_lat_l.torque.Z	femur_lat_meniscii_l.meniscus_lat_l.force.X	femur_lat_meniscii_l.meniscus_lat_l.force.Y	femur_lat_meniscii_l.meniscus_lat_l.force.Z	femur_lat_meniscii_l.meniscus_lat_l.torque.X	femur_lat_meniscii_l.meniscus_lat_l.torque.Y	femur_lat_meniscii_l.meniscus_lat_l.torque.Z	femur_med_meniscii_l.femur_med_l.force.X	femur_med_meniscii_l.femur_med_l.force.Y	femur_med_meniscii_l.femur_med_l.force.Z	femur_med_meniscii_l.femur_med_l.torque.X	femur_med_meniscii_l.femur_med_l.torque.Y	femur_med_meniscii_l.femur_med_l.torque.Z	femur_med_meniscii_l.meniscus_med_l.force.X	femur_med_meniscii_l.meniscus_med_l.force.Y	femur_med_meniscii_l.meniscus_med_l.force.Z	femur_med_meniscii_l.meniscus_med_l.torque.X	femur_med_meniscii_l.meniscus_med_l.torque.Y	femur_med_meniscii_l.meniscus_med_l.torque.Z	femur_lat_meniscii_r.femur_lat_r.force.X	femur_lat_meniscii_r.femur_lat_r.force.Y	femur_lat_meniscii_r.femur_lat_r.force.Z	femur_lat_meniscii_r.femur_lat_r.torque.X	femur_lat_meniscii_r.femur_lat_r.torque.Y	femur_lat_meniscii_r.femur_lat_r.torque.Z	femur_lat_meniscii_r.meniscus_lat_r.force.X	femur_lat_meniscii_r.meniscus_lat_r.force.Y	femur_lat_meniscii_r.meniscus_lat_r.force.Z	femur_lat_meniscii_r.meniscus_lat_r.torque.X	femur_lat_meniscii_r.meniscus_lat_r.torque.Y	femur_lat_meniscii_r.meniscus_lat_r.torque.Z	femur_med_meniscii_r.femur_med_r.force.X	femur_med_meniscii_r.femur_med_r.force.Y	femur_med_meniscii_r.femur_med_r.force.Z	femur_med_meniscii_r.femur_med_r.torque.X	femur_med_meniscii_r.femur_med_r.torque.Y	femur_med_meniscii_r.femur_med_r.torque.Z	femur_med_meniscii_r.meniscus_med_r.force.X	femur_med_meniscii_r.meniscus_med_r.force.Y	femur_med_meniscii_r.meniscus_med_r.force.Z	femur_med_meniscii_r.meniscus_med_r.torque.X	femur_med_meniscii_r.meniscus_med_r.torque.Y	femur_med_meniscii_r.meniscus_med_r.torque.Z	femur_med_tibia_l.tibia_upper_l.force.X	femur_med_tibia_l.tibia_upper_l.force.Y	femur_med_tibia_l.tibia_upper_l.force.Z	femur_med_tibia_l.tibia_upper_l.torque.X	femur_med_tibia_l.tibia_upper_l.torque.Y	femur_med_tibia_l.tibia_upper_l.torque.Z	femur_med_tibia_l.femur_med_l.force.X	femur_med_tibia_l.femur_med_l.force.Y	femur_med_tibia_l.femur_med_l.force.Z	femur_med_tibia_l.femur_med_l.torque.X	femur_med_tibia_l.femur_med_l.torque.Y	femur_med_tibia_l.femur_med_l.torque.Z	femur_lat_tibia_l.tibia_upper_l.force.X	femur_lat_tibia_l.tibia_upper_l.force.Y	femur_lat_tibia_l.tibia_upper_l.force.Z	femur_lat_tibia_l.tibia_upper_l.torque.X	femur_lat_tibia_l.tibia_upper_l.torque.Y	femur_lat_tibia_l.tibia_upper_l.torque.Z	femur_lat_tibia_l.femur_lat_l.force.X	femur_lat_tibia_l.femur_lat_l.force.Y	femur_lat_tibia_l.femur_lat_l.force.Z	femur_lat_tibia_l.femur_lat_l.torque.X	femur_lat_tibia_l.femur_lat_l.torque.Y	femur_lat_tibia_l.femur_lat_l.torque.Z	femur_med_tibia_r.tibia_upper_r.force.X	femur_med_tibia_r.tibia_upper_r.force.Y	femur_med_tibia_r.tibia_upper_r.force.Z	femur_med_tibia_r.tibia_upper_r.torque.X	femur_med_tibia_r.tibia_upper_r.torque.Y	femur_med_tibia_r.tibia_upper_r.torque.Z	femur_med_tibia_r.femur_med_r.force.X	femur_med_tibia_r.femur_med_r.force.Y	femur_med_tibia_r.femur_med_r.force.Z	femur_med_tibia_r.femur_med_r.torque.X	femur_med_tibia_r.femur_med_r.torque.Y	femur_med_tibia_r.femur_med_r.torque.Z	femur_lat_tibia_r.tibia_upper_r.force.X	femur_lat_tibia_r.tibia_upper_r.force.Y	femur_lat_tibia_r.tibia_upper_r.force.Z	femur_lat_tibia_r.tibia_upper_r.torque.X	femur_lat_tibia_r.tibia_upper_r.torque.Y	femur_lat_tibia_r.tibia_upper_r.torque.Z	femur_lat_tibia_r.femur_lat_r.force.X	femur_lat_tibia_r.femur_lat_r.force.Y	femur_lat_tibia_r.femur_lat_r.force.Z	femur_lat_tibia_r.femur_lat_r.torque.X	femur_lat_tibia_r.femur_lat_r.torque.Y	femur_lat_tibia_r.femur_lat_r.torque.Z	aACL_R	pACL_R	aPCL_R	pPCL_R	aMCL_R	mMCL_R	pMCL_R	aLCL_R	mLCL_R	pLCL_R	aPCL_L	pPCL_L	aMCL_L	aLCL_L	ground_prescribedForce_-40_fx	ground_prescribedForce_-40_fy	ground_prescribedForce_-40_fz
      0.39815176	      7.73311397	      5.79325996	      6.20291489	      2.71620780	      3.24091051	      3.27090229	      2.81725710	      3.53780155	      8.46081729	      8.39594656	      1.14352940	      5.74109803	      4.22943951	      2.98412954	      2.50985811	      4.08859508	      4.81166649	      2.28724454	      1.39959886	      3.73829081	      5.68132984	      4.24270291	     22.87885635	     13.22702971	      3.70650995	      2.89171693	      4.23756922	     23.94119039	     13.44501097	     17.02689226	     25.44278507	      1.19003309	      1.08166215	     10.51684470	     11.36174803	      2.58524269	      2.99972265	     12.60137974	      3.99936767	      7.84270245	      8.39704002	      5.89585645	      1.46056810	      7.73311397	      5.79325996	      6.20291489	      2.71620780	      3.24091051	      3.27090229	      9.01454276	      4.18243429	      7.90714069	      7.37496951	      1.55232671	      5.74109803	      4.22943951	      2.98412954	      2.50985811	      4.08859508	      4.15958794	      2.28724454	      1.59270741	      3.73829081	      5.68132984	      4.24270291	     22.87885635	     13.22702971	      3.70650995	      2.89171693	      4.23756922	     10.97248453	      6.74449634	      7.73987707	      8.32149015	     14.59644508	      6.77791343	     32.20606573	     42.79933585	      2.88273267	      3.03412797	      8.68163955	      4.47143935	     12.77360132	      2.04623701	      5.42546732	      1.72096785	     25.54645901	     25.54645901	      9.21194607	      9.21194607	     26.99499361	     26.99499361	      2.76307435	     50.99597937	     -9.56042239	      5.21997485	     -0.02578839	      1.48581788	     -2.76307435	    -50.99597937	      9.56042239	     -1.74637766	      0.02558040	     -0.48301696	     -3.31599387	     20.97615968	     -3.40468921	      0.94473225	     -0.02138609	     -1.00501789	      3.31599387	    -20.97615968	      3.40468921	      0.28075727	      0.00368718	     -0.29758878	     70.54410901	     56.89435324	     27.12095990	    -12.57247743	      1.68585843	     29.23454896	    -70.54410901	    -56.89435324	    -27.12095990	      2.29410873	     -2.37299271	     -1.05809704	    168.07892908	     65.64533676	    -20.13625447	      9.33874924	     -2.90962116	     68.47976827	   -168.07892908	    -65.64533676	     20.13625447	     -1.31334936	      2.61446810	     -2.45332836	      0.00000000	      0.00000000	      0.00000000	      0.00000000	      0.00000000	      0.00000000	      0.00000000	      0.00000000	      0.00000000	      0.00000000	      0.00000000	      0.00000000	      0.00000000	      0.00000000	      0.00000000	      0.00000000	      0.00000000	      0.00000000	      0.00000000	      0.00000000	      0.00000000	      0.00000000	      0.00000000	      0.00000000	     -3.45660792	     -4.97028335	      2.62578052	     -0.13645594	      0.07911145	     -0.02965561	      3.45660792	      4.97028335	     -2.62578052	      1.16985929	     -0.05016154	      1.44483843	      0.00000000	      0.00000000	      0.00000000	      0.00000000	      0.00000000	      0.00000000	      0.00000000	      0.00000000	      0.00000000	      0.00000000	      0.00000000	      0.00000000	      8.15542609	      0.00000000	    120.65535188	     58.59521554	      0.00909209	      0.75168569	      0.00000000	      4.66025112	      0.00000000	      0.00000000	      0.00000000	      0.00000000	      0.00000001	      0.00000000	     84.26488000	    -70.70660000	      0.00000000
      0.39973842	      7.72931265	      5.79064409	      6.20007924	      2.71503338	      3.23963944	      3.26929777	      2.81401143	      3.53678928	      8.46706322	      8.39343449	      1.43252215	      5.73847540	      4.22762742	      2.98279182	      2.50870613	      4.08651815	      4.81119242	      2.28624927	      1.39868656	      3.73660388	      5.67875833	      4.24074745	     22.87411017	     13.22168585	      3.70487243	      2.89094872	      4.23458799	     23.96931475	     13.42491534	     17.01624897	     25.43982263	      1.16350505	      1.07486394	     10.47122614	     11.29100054	      2.57374613	      3.01695070	     12.60278009	      4.00513529	      7.85618409	      8.41513464	      5.91109074	      1.45179027	      7.72931265	      5.79064409	      6.20007924	      2.71503338	      3.23963944	      3.26929777	      9.00902998	      4.18039792	      7.90254353	      7.37170921	      1.55165858	      5.73847540	      4.22762742	      2.98279182	      2.50870613	      4.08651815	      4.15830249	      2.28624927	      1.59201000	      3.73660388	      5.67875833	      4.24074745	     22.87411017	     13.22168585	      3.70487243	      2.89094872	      4.23458799	     10.96622413	      6.74138027	      7.73623221	      8.31759063	     14.58395572	      6.77210685	     32.18343409	     42.79038005	      2.87997513	      3.03180842	      8.67692305	      4.46863232	     12.76707412	      2.04540849	      5.42227407	      1.72002857	     25.53538820	     25.53538820	      9.20759919	      9.20759919	     26.99108879	     26.99108879	      2.76307435	     50.99597937	     -9.56042239	      5.21997485	     -0.02578839	      1.48581788	     -2.76307435	    -50.99597937	      9.56042239	     -1.74637766	      0.02558040	     -0.48301696	     -3.31599387	     20.97615968	     -3.40468921	      0.94473225	     -0.02138609	     -1.00501789	      3.31599387	    -20.97615968	      3.40468921	      0.28075727	      0.00368718	     -0.29758878	     70.85682173	     56.49925789	     26.80627162	    -12.43181118	      1.68839803	     29.37244845	    -70.85682173	    -56.49925789	    -26.80627162	      2.27218690	     -2.37085010	     -1.07919182	    166.73201528	     65.04463967	    -20.05974840	      9.29548362	     -2.88216752	     67.93216995	   -166.73201528	    -65.04463967	     20.05974840	     -1.30268138	      2.59405337	     -2.43205912	      0.00000000	      0.00000000	      0.00000000	      0.00000000	      0.00000000	      0.00000000	      0.00000000	      0.00000000	      0.00000000	      0.00000000	      0.00000000	      0.00000000	      0.00000000	      0.00000000	      0.00000000	      0.00000000	      0.00000000	      0.00000000	      0.00000000	      0.00000000	      0.00000000	      0.00000000	      0.00000000	      0.00000000	     -3.28377335	     -4.72559262	      2.49559909	     -0.12983590	      0.07528589	     -0.02806372	      3.28377335	      4.72559262	     -2.49559909	      1.11196963	     -0.04766624	      1.37268024	      0.00000000	      0.00000000	      0.00000000	      0.00000000	      0.00000000	      0.00000000	      0.00000000	      0.00000000	      0.00000000	      0.00000000	      0.00000000	      0.00000000	      8.42320632	      0.00000000	    119.00503513	     57.59553260	     -0.05442035	      0.69171065	      0.00000000	      4.61787173	      0.00000000	      0.00000000	      0.00000000	      0.00000000	      0.00000001	      0.00000000	     84.26488000	    -70.70660000	      0.00000000
      0.40282488	      7.72213782	      5.78570655	      6.19472691	      2.71281657	      3.23724023	      3.26626930	      2.80499761	      3.53283689	      8.47834030	      8.39002779	      1.47016987	      5.73352515	      4.22420698	      2.98026682	      2.50653177	      4.08259807	      4.81068977	      2.28437064	      1.39618578	      3.73341976	      5.67390457	      4.23705652	     22.86515181	     13.21159983	      3.70178151	      2.88949880	      4.22895676	     24.01766602	     13.37393088	     16.99273898	     25.44494090	      1.15328478	      1.06217311	     10.39492950	     11.16561744	      2.54961615	      3.04688606	     12.60516755	      4.01120059	      7.87658550	      8.44720299	      5.95573852	      1.43981549	      7.72213782	      5.78570655	      6.19472691	      2.71281657	      3.23724023	      3.26626930	      8.99862315	      4.17655435	      7.89386586	      7.36555523	      1.55039745	      5.73352515	      4.22420698	      2.98026682	      2.50653177	      4.08259807	      4.15587636	      2.28437064	      1.59069358	      3.73341976	      5.67390457	      4.23705652	     22.86515181	     13.21159983	      3.70178151	      2.88949880	      4.22895676	     10.95440718	      6.73549876	      7.72935270	      8.31023050	     14.56032850	      6.76112195	     32.14068676	     42.77347001	      2.87473698	      3.02741817	      8.66802073	      4.46333280	     12.75473920	      2.04384471	      5.41625788	      1.71825807	     25.51449116	     25.51449116	      9.19939450	      9.19939450	     26.98371852	     26.98371852	      2.76307435	     50.99597937	     -9.56042239	      5.21997485	     -0.02578839	      1.48581788	     -2.76307435	    -50.99597937	      9.56042239	     -1.74637766	      0.02558040	     -0.48301696	     -3.31599387	     20.97615968	     -3.40468921	      0.94473225	     -0.02138609	     -1.00501789	      3.31599387	    -20.97615968	      3.40468921	      0.28075727	      0.00368718	     -0.29758878	     69.91366952	     56.96302808	     26.74900341	    -12.42069053	      1.66642940	     28.98409564	    -69.91366952	    -56.96302808	    -26.74900341	      2.28198191	     -2.34291451	     -1.04402802	    163.86300845	     63.77864127	    -19.87266261	      9.19522826	     -2.82578935	     66.76517654	   -163.86300845	    -63.77864127	     19.87266261	     -1.28096274	      2.55157539	     -2.38697069	      0.00000000	      0.00000000	      0.00000000	      0.00000000	      0.00000000	      0.00000000	      0.00000000	      0.00000000	      0.00000000	      0.00000000	      0.00000000	      0.00000000	      0.00000000	      0.00000000	      0.00000000	      0.00000000	      0.00000000	      0.00000000	      0.00000000	      0.00000000	      0.00000000	      0.00000000	      0.00000000	      0.00000000	     -2.99190924	     -4.32742361	      2.27391882	     -0.11869328	      0.06875807	     -0.02511933	      2.99190924	      4.32742361	     -2.27391882	      1.01358676	     -0.04341317	      1.25080873	      0.00000000	      0.00000000	      0.00000000	      0.00000000	      0.00000000	      0.00000000	      0.00000000	      0.00000000	      0.00000000	      0.00000000	      0.00000000	      0.00000000	      8.94028752	      0.00000000	    115.97219238	     56.08428895	     -0.00389403	      0.76372656	      0.00000000	      4.87713858	      0.00000000	      0.00000000	      0.00000000	      0.00000000	      0.00000001	      0.00000000	     84.26488000	    -70.70660000	      0.00000000
      0.40591133	      7.71524360	      5.78096187	      6.18958371	      2.71068627	      3.23493471	      3.26335927	      2.79639328	      3.52852756	      8.49573760	      8.39858577	      1.38967369	      5.72876833	      4.22091996	      2.97784045	      2.50444239	      4.07883136	      4.81285540	      2.28256534	      1.39471582	      3.73036004	      5.66924045	      4.23350986	     22.85654366	     13.20190866	      3.69881128	      2.88810565	      4.22354041	     24.07350892	     13.32560766	     16.98089020	     25.45295579	      1.04218648	      1.05623263	     10.35143596	     11.06840229	      2.52510650	      3.07384788	     12.60513430	      4.00595414	      7.88440037	      8.47505918	      6.01705967	      1.43383756	      7.71524360	      5.78096187	      6.18958371	      2.71068627	      3.23493471	      3.26335927	      8.98862122	      4.17286109	      7.88552671	      7.35964154	      1.54918553	      5.72876833	      4.22091996	      2.97784045	      2.50444239	      4.07883136	      4.15354522	      2.28256534	      1.58942855	      3.73036004	      5.66924045	      4.23350986	     22.85654366	     13.20190866	      3.69881128	      2.88810565	      4.22354041	     10.94305152	      6.72984721	      7.72274226	      8.30315826	     14.53755702	      6.75053483	     32.09957255	     42.75721338	      2.86966055	      3.02318375	      8.65946642	      4.45823887	     12.74286772	      2.04234211	      5.41049135	      1.71656001	     25.49440968	     25.49440968	      9.19151054	      9.19151054	     26.97663638	     26.97663638	      2.76307435	     50.99597937	     -9.56042239	      5.21997485	     -0.02578839	      1.48581788	     -2.76307435	    -50.99597937	      9.56042239	     -1.74637766	      0.02558040	     -0.48301696	     -3.31599387	     20.97615968	     -3.40468921	      0.94473225	     -0.02138609	     -1.00501789	      3.31599387	    -20.97615968	      3.40468921	      0.28075727	      0.00368718	     -0.29758878	     65.51046765	     56.66127706	     27.17617992	    -12.59657292	      1.56540804	     27.14563237	    -65.51046765	    -56.66127706	    -27.17617992	      2.28862309	     -2.23131098	     -0.90907055	    161.72998816	     63.09631554	    -20.17093892	      9.30521744	     -2.78549233	     65.89494268	   -161.72998816	    -63.09631554	     20.17093892	     -1.27967460	      2.53019226	     -2.34497801	      0.00000000	      0.00000000	      0.00000000	      0.00000000	      0.00000000	      0.00000000	      0.00000000	      0.00000000	      0.00000000	      0.00000000	      0.00000000	      0.00000000	      0.00000000	      0.00000000	      0.00000000	      0.00000000	      0.00000000	      0.00000000	      0.00000000	      0.00000000	      0.00000000	      0.00000000	      0.00000000	      0.00000000	     -2.71083318	     -3.91095876	      2.07829766	     -0.10822335	      0.06275318	     -0.02292317	      2.71083318	      3.91095876	     -2.07829766	      0.92589980	     -0.03933956	      1.13352164	      0.00000000	      0.00000000	      0.00000000	      0.00000000	      0.00000000	      0.00000000	      0.00000000	      0.00000000	      0.00000000	      0.00000000	      0.00000000	      0.00000000	      9.68849423	      0.00000000	    112.48560945	     53.23680979	     -0.53340016	      0.22837923	      0.00000000	      4.19275256	      0.00000000	      0.00000000	      0.00000000	      0.00000000	      0.00000001	      0.00000000	     84.26488000	    -70.70660000	      0.00000000
